<svg xmlns="http://www.w3.org/2000/svg" viewBox="0 0 1200 630">
  <defs>
    <linearGradient id="grad1" x1="0%" y1="0%" x2="100%" y2="100%">
      <stop offset="0%" style="stop-color:#7C3AED;stop-opacity:1" />
      <stop offset="100%" style="stop-color:#06B6D4;stop-opacity:1" />
    </linearGradient>
    <filter id="glow" x="-20%" y="-20%" width="140%" height="140%">
      <feGaussianBlur stdDeviation="10" result="blur" />
      <feComposite in="SourceGraphic" in2="blur" operator="over" />
    </filter>
  </defs>
  
  <!-- Background -->
  <rect width="1200" height="630" fill="#0F172A" />
  
  <!-- Background Accents -->
  <circle cx="100" cy="100" r="300" fill="#1E293B" opacity="0.3" />
  <circle cx="1100" cy="530" r="200" fill="#7C3AED" opacity="0.1" />
  
  <!-- Logo Container -->
  <g transform="translate(600, 315)">
    <!-- Icon Circle -->
    <circle cx="0" cy="-60" r="80" fill="#1E293B" stroke="#334155" stroke-width="2" />
    
    <!-- Rocket Icon -->
    <g transform="translate(-40, -100) scale(3.5)" fill="url(#grad1)" filter="url(#glow)">
       <path d="M4.5 16.5c-1.5 1.26-2 5-2 5s3.74-.5 5-2c.71-.84.7-2.13-.09-2.91a2.18 2.18 0 0 0-2.91-.09z"/>
       <path d="M12 15l-3-3a22 22 0 0 1 2-3.95A12.88 12.88 0 0 1 22 2c0 2.72-.78 7.5-6 11a22.35 22.35 0 0 1-4 2z"/>
       <path d="M9 12H4s.55-3.03 2-4c1.62-1.1 4 0 4 0"/>
       <path d="M12 15v5s3.03-.55 4-2c1.1-1.62 0-4 0-4"/>
    </g>
    
    <!-- Text -->
    <text x="0" y="100" font-family="'Inter', sans-serif" font-weight="bold" font-size="90" fill="#F8FAFC" text-anchor="middle" letter-spacing="-2">
      SkyPulse
    </text>
    
    <!-- Subtitle -->
    <text x="0" y="150" font-family="'JetBrains Mono', monospace" font-size="24" fill="#94A3B8" text-anchor="middle" letter-spacing="4">
      ASTRONOMICAL CONTEXT ENGINE
    </text>
  </g>
</svg>